<svg xmlns="http://www.w3.org/2000/svg" viewBox="0 0 1440 320"><path fill="#7D96FF" fill-opacity="1" d="M0,64L34.3,74.7C68.6,85,137,107,206,122.7C274.3,139,343,149,411,149.3C480,149,549,139,617,122.7C685.7,107,754,85,823,80C891.4,75,960,85,1029,101.3C1097.1,117,1166,139,1234,149.3C1302.9,160,1371,160,1406,160L1440,160L1440,320L1405.7,320C1371.4,320,1303,320,1234,320C1165.7,320,1097,320,1029,320C960,320,891,320,823,320C754.3,320,686,320,617,320C548.6,320,480,320,411,320C342.9,320,274,320,206,320C137.1,320,69,320,34,320L0,320Z"></path></svg>